<?xml version="1.0" encoding="UTF-8" standalone="no"?>
<!DOCTYPE svg PUBLIC "-//W3C//DTD SVG 1.1//EN" "http://www.w3.org/Graphics/SVG/1.1/DTD/svg11.dtd">
<svg height="100%" stroke-miterlimit="10" style="fill-rule:nonzero;clip-rule:evenodd;stroke-linecap:round;stroke-linejoin:round;" version="1.1" viewBox="0 0 3477 603" width="100%" xml:space="preserve" xmlns="http://www.w3.org/2000/svg" xmlns:xlink="http://www.w3.org/1999/xlink">
  <!-- Overrides: remove borders and make black-filled text paths white -->
  <style>
    * { stroke: none !important; }
    path[fill="#111111"] { fill: #ffffff !important; }
  </style>

  <defs/>
  <clipPath id="ArtboardFrame">
    <rect height="603" width="3477" x="0" y="0"/>
  </clipPath>
  <g clip-path="url(#ArtboardFrame)" id="Untitled">
    <g opacity="1">
      <path d="M295.56 0C320.313 1.03333 344.79 4.11667 368.99 9.25C436.43 23.56 496.35 67.61 518.35 134.96C531.76 176.04 533.31 218.42 527.51 261.5C520.65 312.48 498.99 356.91 460.32 390.83C416.67 429.12 355.82 444.72 299.05 445.84C266.45 446.48 233.68 446.07 201.06 445.98C200.926 445.977 200.796 446.029 200.7 446.123C200.604 446.217 200.55 446.346 200.55 446.48C200.52 498.65 200.29 550.83 200.2 603" fill="none" opacity="1" stroke="#f2ddab" stroke-linecap="butt" stroke-linejoin="miter" stroke-width="2"/>
      <path d="M335.31 255.56C350.73 209.97 336.02 152.21 277.99 152.07C252.277 152.003 226.597 151.983 200.95 152.01C200.701 152.01 200.5 152.211 200.5 152.46L200.5 294.97C200.5 295.235 200.715 295.45 200.98 295.45C227.7 295.56 254.62 296.18 281.29 294.56C305.86 293.06 327.23 279.46 335.31 255.56" fill="none" opacity="1" stroke="#f2ddab" stroke-linecap="butt" stroke-linejoin="miter" stroke-width="2"/>
      <path d="M3477 442.81C3455.8 410.97 3434.9 378.933 3414.29 346.7C3414.23 346.61 3414.22 346.498 3414.25 346.396C3414.29 346.295 3414.37 346.215 3414.47 346.18C3435.34 338.887 3450.86 325.42 3461.02 305.78C3470.33 287.8 3472.59 271.4 3471.06 251.69C3469.81 235.51 3465.72 221.48 3456.84 208.45C3446 192.537 3431.85 180.86 3414.39 173.42C3400.25 167.4 3380.85 164.08 3365.93 164.05C3338.11 163.99 3310.58 163.973 3283.35 164C3282.57 164 3281.93 164.636 3281.93 165.42L3281.68 442.91C3281.68 443.175 3281.89 443.39 3282.16 443.39L3336.43 443.05C3336.81 443.05 3337.11 442.75 3337.11 442.38L3337.03 334.13C3337.03 333.243 3337.27 333.17 3337.75 333.91L3408.77 443.02C3408.93 443.269 3409.21 443.417 3409.5 443.41L3477 443.06" fill="none" opacity="1" stroke="#888888" stroke-linecap="butt" stroke-linejoin="miter" stroke-width="2"/>
      <path d="M1455.41 289.49C1455.41 289.372 1455.48 289.266 1455.59 289.219C1455.7 289.172 1455.82 289.192 1455.91 289.27C1480.71 312.61 1505.95 335.57 1530.34 359.3C1560.69 388.827 1591.44 417.937 1622.61 446.63C1622.87 446.87 1623 446.813 1623 446.46L1623 318.96C1623 318.72 1622.95 318.49 1622.86 318.27C1622.79 318.103 1622.76 317.927 1622.76 317.74C1622.77 267.247 1622.76 216.727 1622.73 166.18C1622.72 165.864 1622.47 165.61 1622.15 165.61L1568.09 165.45C1567.8 165.45 1567.56 165.683 1567.56 165.97L1567.35 317.98C1567.35 318.393 1567.2 318.457 1566.9 318.17C1531.03 283.53 1494.35 249.79 1458.61 215.01C1439.6 196.51 1419.9 178.64 1400.38 160.65C1400.13 160.41 1400 160.463 1400 160.81L1400 441.49C1400 442.445 1400.77 443.22 1401.73 443.22L1454.49 443.27C1454.77 443.27 1455 443.042 1455 442.76L1455.41 289.49" fill="none" opacity="1" stroke="#888888" stroke-linecap="butt" stroke-linejoin="miter" stroke-width="2"/>
      <path d="M2387.07 289.4C2387.07 289.313 2387.12 289.234 2387.2 289.199C2387.28 289.164 2387.38 289.18 2387.44 289.24C2422.16 322.35 2457.54 354.79 2491.55 388.32C2511.28 407.773 2531.72 426.91 2552.85 445.73C2553.18 446.017 2553.34 445.943 2553.33 445.51C2552.83 352.4 2553.59 259.21 2553.47 166.04C2553.46 165.784 2553.26 165.58 2553 165.58L2498.42 165.3C2498.28 165.3 2498.15 165.355 2498.06 165.453C2497.96 165.551 2497.91 165.683 2497.91 165.82C2498.82 216.25 2497.66 266.78 2498.62 317.16C2498.62 317.384 2498.49 317.588 2498.29 317.679C2498.09 317.771 2497.85 317.732 2497.69 317.58C2451.49 274.54 2406.32 230.47 2360.05 187.5C2351.96 179.99 2341.64 169.13 2331.77 160.52C2331.52 160.3 2331.39 160.357 2331.39 160.69C2331.1 254.75 2331.03 348.82 2330.9 442.9C2330.9 443.061 2330.96 443.215 2331.08 443.328C2331.19 443.441 2331.34 443.503 2331.5 443.5L2385.97 443.17C2386.21 443.17 2386.41 442.975 2386.42 442.73C2387.09 394.39 2386.78 345.96 2386.77 297.62C2386.77 295.14 2387.12 292.11 2387.07 289.4" fill="none" opacity="1" stroke="#888888" stroke-linecap="butt" stroke-linejoin="miter" stroke-width="2"/>
      <path d="M1286.79 373.6C1318.66 402.79 1339.46 423.46 1365.23 449.04C1365.28 449.088 1365.35 449.103 1365.42 449.077C1365.48 449.05 1365.52 448.989 1365.52 448.92C1365.31 438.613 1365.24 428.303 1365.33 417.99C1365.91 350.95 1365.53 283.86 1365.47 216.81C1365.46 201.85 1364.95 182.9 1365.2 165.99C1365.2 165.861 1365.15 165.736 1365.06 165.644C1364.97 165.552 1364.85 165.5 1364.72 165.5L1310.25 165.5C1309.97 165.5 1309.74 165.724 1309.74 166L1309.76 319.15C1309.76 319.237 1309.7 319.316 1309.63 319.35C1309.55 319.385 1309.46 319.369 1309.4 319.31C1294.71 305.203 1280.1 291.033 1265.59 276.8C1248.04 259.58 1229.53 243.37 1211.89 226.23C1189.37 204.34 1166.99 181.71 1143.16 161.27C1142.89 161.037 1142.75 161.1 1142.75 161.46L1142.75 442.72C1142.75 442.985 1142.96 443.2 1143.23 443.2C1163.02 443.23 1179.6 444.05 1197.87 442.16C1198.16 442.13 1198.38 441.889 1198.38 441.6C1198.54 433.78 1198.52 422.89 1198.32 408.93C1197.99 386.977 1198.09 347.597 1198.62 290.79C1198.62 290.457 1198.75 290.397 1199 290.61C1227.25 314.73 1254.41 343.96 1286.79 373.6" fill="none" opacity="1" stroke="#888888" stroke-linecap="butt" stroke-linejoin="miter" stroke-width="2"/>
      <path d="M2727.18 220.47C2730.68 220.723 2734.18 221.073 2737.67 221.52C2755.13 223.75 2768.59 232.54 2782.42 244.06C2782.64 244.247 2782.98 244.23 2783.18 244.02L2821.42 205.21C2821.52 205.107 2821.58 204.966 2821.57 204.819C2821.57 204.672 2821.51 204.532 2821.4 204.43C2787.74 173.72 2743.71 159.18 2698.51 166C2666.07 170.9 2636.29 190 2615.38 214.72C2608.66 222.66 2603.48 229.63 2598.92 238.43C2560.61 312.45 2594.75 404.39 2671.49 434.38C2723.42 454.67 2782.35 442.1 2821.94 402.93C2822.03 402.845 2822.07 402.73 2822.07 402.61C2822.07 402.49 2822.03 402.375 2821.94 402.29L2784.07 364.47C2783.75 364.143 2783.22 364.13 2782.88 364.44C2770.6 375.56 2755.64 384.1 2739.29 387.1C2691.09 395.94 2643.42 360.65 2639.39 311.11C2635.35 261.65 2676.9 216.85 2727.18 220.47" fill="none" opacity="1" stroke="#888888" stroke-linecap="butt" stroke-linejoin="miter" stroke-width="2"/>
      <path d="M770.77 359.3C807.71 358.55 840.1 363.3 871.5 338.79C878.693 333.177 884.677 327.48 889.45 321.7C909.92 296.91 914.41 261.1 904.06 230.4C892.25 195.35 855.02 165.32 817.5 165.47C784 165.603 750.08 165.517 715.74 165.21C715.271 165.21 714.89 165.586 714.89 166.05C715.01 248.13 715.047 330.363 715 412.75C714.99 421.46 715.4 432.63 715.29 442.6C715.287 442.745 715.343 442.885 715.445 442.988C715.546 443.092 715.685 443.15 715.83 443.15L769.55 443.3C769.881 443.3 770.15 443.031 770.15 442.7L770.29 359.79C770.295 359.522 770.507 359.305 770.77 359.3" fill="none" opacity="1" stroke="#888888" stroke-linecap="butt" stroke-linejoin="miter" stroke-width="2"/>
      <path d="M997.75 221.53C1004.24 220.997 1009.65 220.733 1014 220.74C1045.5 220.79 1077.39 221.72 1108.81 219.48C1109.09 219.464 1109.3 219.236 1109.3 218.96L1108.93 166C1108.93 165.729 1108.71 165.51 1108.44 165.51C1062.05 165.51 1015.67 165.5 969.28 165.48C962.73 165.48 951.41 165.01 942.44 165.4C942.157 165.411 941.935 165.642 941.94 165.92C942.32 258.09 941.99 350.27 942.01 442.45C942.01 442.582 942.062 442.708 942.154 442.8C942.246 442.892 942.371 442.943 942.5 442.94C986.28 442.75 1030.15 443.23 1073.94 443.3C1088.98 443.327 1100.59 442.96 1108.77 442.2C1109.02 442.179 1109.21 441.97 1109.21 441.72L1109.2 386.77C1109.2 386.533 1109.01 386.34 1108.77 386.34C1071.84 386.807 1034.9 386.917 997.96 386.67C997.601 386.67 997.31 386.379 997.31 386.02L997.22 332.93C997.22 332.328 997.712 331.84 998.32 331.84L1080.28 331.75C1080.57 331.75 1080.8 331.513 1080.8 331.22L1080.64 277.07C1080.64 276.755 1080.38 276.5 1080.07 276.5L997.75 276.5C997.474 276.5 997.25 276.276 997.25 276L997.25 222.07C997.249 221.787 997.467 221.551 997.75 221.53" fill="none" opacity="1" stroke="#888888" stroke-linecap="butt" stroke-linejoin="miter" stroke-width="2"/>
      <path d="M1763.05 251.77C1762.97 251.913 1762.83 252.002 1762.66 252.004C1762.5 252.006 1762.35 251.921 1762.26 251.78C1753.1 236.62 1745.63 220.72 1736.7 205.48C1729.23 192.713 1722.34 179.583 1716.04 166.09C1715.9 165.804 1715.62 165.621 1715.3 165.62L1652.95 165.45C1652.78 165.451 1652.62 165.541 1652.53 165.689C1652.44 165.836 1652.44 166.019 1652.52 166.17C1679.63 216.363 1706.87 266.457 1734.26 316.45C1734.92 317.65 1735.25 318.937 1735.25 320.31C1735.24 361.257 1735.25 402.187 1735.28 443.1C1735.28 443.326 1735.46 443.51 1735.69 443.51L1790.55 443.17C1790.79 443.17 1790.98 442.977 1790.98 442.74C1791.05 405.64 1790.96 368.537 1790.72 331.43C1790.65 321.01 1792.09 314.09 1796.95 305.69C1802.23 296.59 1807.11 288.59 1811.65 279.86C1820.76 262.36 1830.93 245.48 1839.9 227.93C1850.57 207.02 1862.97 187.23 1872.75 165.9C1872.79 165.811 1872.78 165.707 1872.73 165.625C1872.68 165.542 1872.59 165.491 1872.49 165.49L1811.18 165.51C1810.88 165.509 1810.6 165.674 1810.45 165.94L1763.05 251.77" fill="none" opacity="1" stroke="#888888" stroke-linecap="butt" stroke-linejoin="miter" stroke-width="2"/>
      <path d="M2990 276.25L2906.78 276.25C2906.53 276.25 2906.32 276.04 2906.32 275.78L2905.99 166C2905.99 165.766 2905.8 165.575 2905.56 165.57L2851.22 165.31C2850.96 165.31 2850.75 165.52 2850.75 165.78L2850.75 442.57C2850.75 442.885 2851.01 443.14 2851.32 443.14L2905.26 443.3C2905.57 443.3 2905.83 443.049 2905.83 442.74L2906.35 332.29C2906.35 332.091 2906.51 331.93 2906.71 331.93L2989.95 331.72C2990.22 331.72 2990.44 331.935 2990.44 332.2L2990.81 442.73C2990.81 442.995 2991.02 443.21 2991.29 443.21C3007.47 443.15 3026.92 443.93 3046.03 442.23C3046.27 442.209 3046.45 442.009 3046.45 441.77L3046.17 165.96C3046.17 165.706 3045.96 165.5 3045.71 165.5L2991.03 165.5C2990.74 165.5 2990.5 165.737 2990.5 166.03L2990.5 275.75C2990.5 276.026 2990.28 276.25 2990 276.25" fill="none" opacity="1" stroke="#888888" stroke-linecap="butt" stroke-linejoin="miter" stroke-width="2"/>
      <path d="M2069.61 359.94C2070.54 359.433 2071.36 359.183 2072.07 359.19C2102.57 359.7 2131.18 361.91 2157.76 346.74C2179.05 334.59 2197.32 314.77 2204.23 291.01C2215.5 252.23 2203.09 211.82 2171.68 186.33C2154.72 172.563 2135.41 165.627 2113.74 165.52C2098.67 165.44 2065.59 165.45 2014.49 165.55C2014.22 165.55 2014 165.769 2014 166.04L2014 442.72C2014 442.98 2014.21 443.19 2014.47 443.19C2032.69 443.33 2050.69 444.21 2069.23 442.1C2069.5 442.065 2069.71 441.83 2069.71 441.55L2069.73 360.75C2069.73 360.644 2069.73 360.547 2069.72 360.479C2069.72 360.412 2069.72 360.38 2069.71 360.39L2069.56 360.15C2069.54 360.112 2069.53 360.068 2069.54 360.028C2069.55 359.989 2069.58 359.957 2069.61 359.94" fill="none" opacity="1" stroke="#888888" stroke-linecap="butt" stroke-linejoin="miter" stroke-width="2"/>
      <path d="M2241.23 443.19C2259.65 443.3 2277.89 443.99 2296.28 442.22C2296.55 442.189 2296.75 441.965 2296.75 441.7L2296.75 334.19C2296.75 333.95 2296.7 333.723 2296.61 333.51C2296.54 333.35 2296.51 333.18 2296.51 333C2296.52 277.347 2296.51 221.683 2296.48 166.01C2296.48 165.728 2296.25 165.5 2295.97 165.5L2241.25 165.5C2240.97 165.5 2240.75 165.724 2240.75 166L2240.75 442.71C2240.75 442.975 2240.96 443.19 2241.23 443.19" fill="none" opacity="1" stroke="#888888" stroke-linecap="butt" stroke-linejoin="miter" stroke-width="2"/>
      <path d="M3137.01 220.73L3247.07 220.42C3247.36 220.42 3247.59 220.184 3247.6 219.89C3247.83 208.263 3247.97 196.637 3248.02 185.01C3248.03 180.07 3247.46 172.86 3247.87 166.95C3247.9 166.514 3247.74 166.087 3247.43 165.778C3247.13 165.47 3246.7 165.31 3246.27 165.34C3239.56 165.77 3232.38 165.53 3226.71 165.52C3178.25 165.473 3129.76 165.48 3081.24 165.54C3080.97 165.54 3080.75 165.759 3080.75 166.03L3080.75 442.96C3080.75 443.214 3080.96 443.42 3081.21 443.42L3247.21 443.14C3247.57 443.14 3247.87 442.845 3247.87 442.48L3247.84 387.7C3247.84 387.214 3247.44 386.82 3246.95 386.82L3137.04 386.58C3136.74 386.575 3136.5 386.334 3136.5 386.04L3136.5 332.55C3136.5 332.169 3136.81 331.86 3137.2 331.86L3220.01 331.74C3220.28 331.74 3220.5 331.516 3220.5 331.24L3220.5 276.93C3220.5 276.615 3220.24 276.36 3219.93 276.36L3136.98 276.2C3136.71 276.2 3136.5 275.99 3136.5 275.73L3136.5 221.24C3136.5 220.958 3136.73 220.73 3137.01 220.73" fill="none" opacity="1" stroke="#888888" stroke-linecap="butt" stroke-linejoin="miter" stroke-width="2"/>
      <path d="M3400.38 229.36C3392.36 222.6 3377.24 220.07 3367.06 219.63C3357.25 219.21 3347.41 219.01 3337.52 219.03C3337.24 219.03 3337.02 219.254 3337.02 219.53C3336.99 245.85 3336.6 272.18 3337.8 298.48C3337.82 298.761 3338.04 298.98 3338.32 298.98C3355.58 298.93 3369.56 300.18 3383.96 297.82C3414.83 292.76 3423.33 248.74 3400.38 229.36" fill="none" opacity="1" stroke="#888888" stroke-linecap="butt" stroke-linejoin="miter" stroke-width="2"/>
      <path d="M770.8 303.62C786.35 303.9 801.85 304.18 817.31 303.11C840.87 301.48 858.65 275.73 852.95 253.09C848.69 236.17 832.87 222.36 815.75 220.93C805.37 220.063 790.513 220.147 771.18 221.18C770.887 221.198 770.644 221.412 770.59 221.7C770.343 223.173 770.22 224.443 770.22 225.51C770.28 251.33 770.307 277.197 770.3 303.11C770.3 303.388 770.522 303.615 770.8 303.62" fill="none" opacity="1" stroke="#888888" stroke-linecap="butt" stroke-linejoin="miter" stroke-width="2"/>
      <path d="M2151.54 251.19C2150.18 242.23 2136.4 229.15 2128.72 224.15C2127.25 223.197 2125.52 222.587 2123.51 222.32C2106.08 220 2087.86 220.26 2070.44 220.56C2070.05 220.565 2069.74 220.882 2069.74 221.27L2069.61 303.17C2069.61 303.317 2069.67 303.457 2069.78 303.559C2069.88 303.661 2070.02 303.715 2070.17 303.71C2096.38 302.61 2125.17 310.92 2144.17 286.68C2152.3 276.3 2153.47 263.94 2151.54 251.19" fill="none" opacity="1" stroke="#888888" stroke-linecap="butt" stroke-linejoin="miter" stroke-width="2"/>
    </g>
    <path d="M0 0L295.56 0C320.313 1.03333 344.79 4.11667 368.99 9.25C436.43 23.56 496.35 67.61 518.35 134.96C531.76 176.04 533.31 218.42 527.51 261.5C520.65 312.48 498.99 356.91 460.32 390.83C416.67 429.12 355.82 444.72 299.05 445.84C266.45 446.48 233.68 446.07 201.06 445.98C200.926 445.977 200.796 446.029 200.7 446.123C200.604 446.217 200.55 446.346 200.55 446.48C200.52 498.65 200.29 550.83 200.2 603L0 603L0 0ZM335.31 255.56C350.73 209.97 336.02 152.21 277.99 152.07C252.277 152.003 226.597 151.983 200.95 152.01C200.701 152.01 200.5 152.211 200.5 152.46L200.5 294.97C200.5 295.235 200.715 295.45 200.98 295.45C227.7 295.56 254.62 296.18 281.29 294.56C305.86 293.06 327.23 279.46 335.31 255.56Z" fill="#e5ba56" fill-rule="nonzero" opacity="1" stroke="none"/>
    <path d="M295.56 0L3477 0L3477 442.81C3455.8 410.97 3434.9 378.933 3414.29 346.7C3414.23 346.61 3414.22 346.498 3414.25 346.396C3414.29 346.295 3414.37 346.215 3414.47 346.18C3435.34 338.887 3450.86 325.42 3461.02 305.78C3470.33 287.8 3472.59 271.4 3471.06 251.69C3469.81 235.51 3465.72 221.48 3456.84 208.45C3446 192.537 3431.85 180.86 3414.39 173.42C3400.25 167.4 3380.85 164.08 3365.93 164.05C3338.11 163.99 3310.58 163.973 3283.35 164C3282.57 164 3281.93 164.636 3281.93 165.42L3281.68 442.91C3281.68 443.175 3281.89 443.39 3282.16 443.39L3336.43 443.05C3336.81 443.05 3337.11 442.75 3337.11 442.38L3337.03 334.13C3337.03 333.243 3337.27 333.17 3337.75 333.91L3408.77 443.02C3408.93 443.269 3409.21 443.417 3409.5 443.41L3477 443.06L3477 603L200.2 603C200.29 550.83 200.52 498.65 200.55 446.48C200.55 446.346 200.604 446.217 200.7 446.123C200.796 446.029 200.926 445.977 201.06 445.98C233.68 446.07 266.45 446.48 299.05 445.84C355.82 444.72 416.67 429.12 460.32 390.83C498.99 356.91 520.65 312.48 527.51 261.5C533.31 218.42 531.76 176.04 518.35 134.96C496.35 67.61 436.43 23.56 368.99 9.25C344.79 4.11667 320.313 1.03333 295.56 0ZM1455.41 289.49C1455.41 289.372 1455.48 289.266 1455.59 289.219C1455.7 289.172 1455.82 289.192 1455.91 289.27C1480.71 312.61 1505.95 335.57 1530.34 359.3C1560.69 388.827 1591.44 417.937 1622.61 446.63C1622.87 446.87 1623 446.813 1623 446.46L1623 318.96C1623 318.72 1622.95 318.49 1622.86 318.27C1622.79 318.103 1622.76 317.927 1622.76 317.74C1622.77 267.247 1622.76 216.727 1622.73 166.18C1622.72 165.864 1622.47 165.61 1622.15 165.61L1568.09 165.45C1567.8 165.45 1567.56 165.683 1567.56 165.97L1567.35 317.98C1567.35 318.393 1567.2 318.457 1566.9 318.17C1531.03 283.53 1494.35 249.79 1458.61 215.01C1439.6 196.51 1419.9 178.64 1400.38 160.65C1400.13 160.41 1400 160.463 1400 160.81L1400 441.49C1400 442.445 1400.77 443.22 1401.73 443.22L1454.49 443.27C1454.77 443.27 1455 443.042 1455 442.76L1455.41 289.49ZM2387.07 289.4C2387.07 289.313 2387.12 289.234 2387.2 289.199C2387.28 289.164 2387.38 289.18 2387.44 289.24C2422.16 322.35 2457.54 354.79 2491.55 388.32C2511.28 407.773 2531.72 426.91 2552.85 445.73C2553.18 446.017 2553.34 445.943 2553.33 445.51C2552.83 352.4 2553.59 259.21 2553.47 166.04C2553.46 165.784 2553.26 165.58 2553 165.58L2498.42 165.3C2498.28 165.3 2498.15 165.355 2498.06 165.453C2497.96 165.551 2497.91 165.683 2497.91 165.82C2498.82 216.25 2497.66 266.78 2498.62 317.16C2498.62 317.384 2498.49 317.588 2498.29 317.679C2498.09 317.771 2497.85 317.732 2497.69 317.58C2451.49 274.54 2406.32 230.47 2360.05 187.5C2351.96 179.99 2341.64 169.13 2331.77 160.52C2331.52 160.3 2331.39 160.357 2331.39 160.69C2331.1 254.75 2331.03 348.82 2330.9 442.9C2330.9 443.061 2330.96 443.215 2331.08 443.328C2331.19 443.441 2331.34 443.503 2331.5 443.5L2385.97 443.17C2386.21 443.17 2386.41 442.975 2386.42 442.73C2387.09 394.39 2386.78 345.96 2386.77 297.62C2386.77 295.14 2387.12 292.11 2387.07 289.4ZM1286.79 373.6C1318.66 402.79 1339.46 423.46 1365.23 449.04C1365.28 449.088 1365.35 449.103 1365.42 449.077C1365.48 449.05 1365.52 448.989 1365.52 448.92C1365.31 438.613 1365.24 428.303 1365.33 417.99C1365.91 350.95 1365.53 283.86 1365.47 216.81C1365.46 201.85 1364.95 182.9 1365.2 165.99C1365.2 165.861 1365.15 165.736 1365.06 165.644C1364.97 165.552 1364.85 165.5 1364.72 165.5L1310.25 165.5C1309.97 165.5 1309.74 165.724 1309.74 166L1309.76 319.15C1309.76 319.237 1309.7 319.316 1309.63 319.35C1309.55 319.385 1309.46 319.369 1309.4 319.31C1294.71 305.203 1280.1 291.033 1265.59 276.8C1248.04 259.58 1229.53 243.37 1211.89 226.23C1189.37 204.34 1166.99 181.71 1143.16 161.27C1142.89 161.037 1142.75 161.1 1142.75 161.46L1142.75 442.72C1142.75 442.985 1142.96 443.2 1143.23 443.2C1163.02 443.23 1179.6 444.05 1197.87 442.16C1198.16 442.13 1198.38 441.889 1198.38 441.6C1198.54 433.78 1198.52 422.89 1198.32 408.93C1197.99 386.977 1198.09 347.597 1198.62 290.79C1198.62 290.457 1198.75 290.397 1199 290.61C1227.25 314.73 1254.41 343.96 1286.79 373.6ZM2727.18 220.47C2730.68 220.723 2734.18 221.073 2737.67 221.52C2755.13 223.75 2768.59 232.54 2782.42 244.06C2782.64 244.247 2782.98 244.23 2783.18 244.02L2821.42 205.21C2821.52 205.107 2821.58 204.966 2821.57 204.819C2821.57 204.672 2821.51 204.532 2821.4 204.43C2787.74 173.72 2743.71 159.18 2698.51 166C2666.07 170.9 2636.29 190 2615.38 214.72C2608.66 222.66 2603.48 229.63 2598.92 238.43C2560.61 312.45 2594.75 404.39 2671.49 434.38C2723.42 454.67 2782.35 442.1 2821.94 402.93C2822.03 402.845 2822.07 402.73 2822.07 402.61C2822.07 402.49 2822.03 402.375 2821.94 402.29L2784.07 364.47C2783.75 364.143 2783.22 364.13 2782.88 364.44C2770.6 375.56 2755.64 384.1 2739.29 387.1C2691.09 395.94 2643.42 360.65 2639.39 311.11C2635.35 261.65 2676.9 216.85 2727.18 220.47ZM770.77 359.3C807.71 358.55 840.1 363.3 871.5 338.79C878.693 333.177 884.677 327.48 889.45 321.7C909.92 296.91 914.41 261.1 904.06 230.4C892.25 195.35 855.02 165.32 817.5 165.47C784 165.603 750.08 165.517 715.74 165.21C715.271 165.21 714.89 165.586 714.89 166.05C715.01 248.13 715.047 330.363 715 412.75C714.99 421.46 715.4 432.63 715.29 442.6C715.287 442.745 715.343 442.885 715.445 442.988C715.546 443.092 715.685 443.15 715.83 443.15L769.55 443.3C769.881 443.3 770.15 443.031 770.15 442.7L770.29 359.79C770.295 359.522 770.507 359.305 770.77 359.3ZM997.75 221.53C1004.24 220.997 1009.65 220.733 1014 220.74C1045.5 220.79 1077.39 221.72 1108.81 219.48C1109.09 219.464 1109.3 219.236 1109.3 218.96L1108.93 166C1108.93 165.729 1108.71 165.51 1108.44 165.51C1062.05 165.51 1015.67 165.5 969.28 165.48C962.73 165.48 951.41 165.01 942.44 165.4C942.157 165.411 941.935 165.642 941.94 165.92C942.32 258.09 941.99 350.27 942.01 442.45C942.01 442.582 942.062 442.708 942.154 442.8C942.246 442.892 942.371 442.943 942.5 442.94C986.28 442.75 1030.15 443.23 1073.94 443.3C1088.98 443.327 1100.59 442.96 1108.77 442.2C1109.02 442.179 1109.21 441.97 1109.21 441.72L1109.2 386.77C1109.2 386.533 1109.01 386.34 1108.77 386.34C1071.84 386.807 1034.9 386.917 997.96 386.67C997.601 386.67 997.31 386.379 997.31 386.02L997.22 332.93C997.22 332.328 997.712 331.84 998.32 331.84L1080.28 331.75C1080.57 331.75 1080.8 331.513 1080.8 331.22L1080.64 277.07C1080.64 276.755 1080.38 276.5 1080.07 276.5L997.75 276.5C997.474 276.5 997.25 276.276 997.25 276L997.25 222.07C997.249 221.787 997.467 221.551 997.75 221.53ZM1763.05 251.77C1762.97 251.913 1762.83 252.002 1762.66 252.004C1762.5 252.006 1762.35 251.921 1762.26 251.78C1753.1 236.62 1745.63 220.72 1736.7 205.48C1729.23 192.713 1722.34 179.583 1716.04 166.09C1715.9 165.804 1715.62 165.621 1715.3 165.62L1652.95 165.45C1652.78 165.451 1652.62 165.541 1652.53 165.689C1652.44 165.836 1652.44 166.019 1652.52 166.17C1679.63 216.363 1706.87 266.457 1734.26 316.45C1734.92 317.65 1735.25 318.937 1735.25 320.31C1735.24 361.257 1735.25 402.187 1735.28 443.1C1735.28 443.326 1735.46 443.51 1735.69 443.51L1790.55 443.17C1790.79 443.17 1790.98 442.977 1790.98 442.74C1791.05 405.64 1790.96 368.537 1790.72 331.43C1790.65 321.01 1792.09 314.09 1796.95 305.69C1802.23 296.59 1807.11 288.59 1811.65 279.86C1820.76 262.36 1830.93 245.48 1839.9 227.93C1850.57 207.02 1862.97 187.23 1872.75 165.9C1872.79 165.811 1872.78 165.707 1872.73 165.625C1872.68 165.542 1872.59 165.491 1872.49 165.49L1811.18 165.51C1810.88 165.509 1810.6 165.674 1810.45 165.94L1763.05 251.77ZM2990 276.25L2906.78 276.25C2906.53 276.25 2906.32 276.04 2906.32 275.78L2905.99 166C2905.99 165.766 2905.8 165.575 2905.56 165.57L2851.22 165.31C2850.96 165.31 2850.75 165.52 2850.75 165.78L2850.75 442.57C2850.75 442.885 2851.01 443.14 2851.32 443.14L2905.26 443.3C2905.57 443.3 2905.83 443.049 2905.83 442.74L2906.35 332.29C2906.35 332.091 2906.51 331.93 2906.71 331.93L2989.95 331.72C2990.22 331.72 2990.44 331.935 2990.44 332.2L2990.81 442.73C2990.81 442.995 2991.02 443.21 2991.29 443.21C3007.47 443.15 3026.92 443.93 3046.03 442.23C3046.27 442.209 3046.45 442.009 3046.45 441.77L3046.17 165.96C3046.17 165.706 3045.96 165.5 3045.71 165.5L2991.03 165.5C2990.74 165.5 2990.5 165.737 2990.5 166.03L2990.5 275.75C2990.5 276.026 2990.28 276.25 2990 276.25ZM2069.61 359.94C2070.54 359.433 2071.36 359.183 2072.07 359.19C2102.57 359.7 2131.18 361.91 2157.76 346.74C2179.05 334.59 2197.32 314.77 2204.23 291.01C2215.5 252.23 2203.09 211.82 2171.68 186.33C2154.72 172.563 2135.41 165.627 2113.74 165.52C2098.67 165.44 2065.59 165.45 2014.49 165.55C2014.22 165.55 2014 165.769 2014 166.04L2014 442.72C2014 442.98 2014.21 443.19 2014.47 443.19C2032.69 443.33 2050.69 444.21 2069.23 442.1C2069.5 442.065 2069.71 441.83 2069.71 441.55L2069.73 360.75C2069.73 360.644 2069.73 360.547 2069.72 360.479C2069.72 360.412 2069.72 360.38 2069.71 360.39L2069.56 360.15C2069.54 360.112 2069.53 360.068 2069.54 360.028C2069.55 359.989 2069.58 359.957 2069.61 359.94ZM2241.23 443.19C2259.65 443.3 2277.89 443.99 2296.28 442.22C2296.55 442.189 2296.75 441.965 2296.75 441.7L2296.75 334.19C2296.75 333.95 2296.7 333.723 2296.61 333.51C2296.54 333.35 2296.51 333.18 2296.51 333C2296.52 277.347 2296.51 221.683 2296.48 166.01C2296.48 165.728 2296.25 165.5 2295.97 165.5L2241.25 165.5C2240.97 165.5 2240.75 165.724 2240.75 166L2240.75 442.71C2240.75 442.975 2240.96 443.19 2241.23 443.19ZM3137.01 220.73L3247.07 220.42C3247.36 220.42 3247.59 220.184 3247.6 219.89C3247.83 208.263 3247.97 196.637 3248.02 185.01C3248.03 180.07 3247.46 172.86 3247.87 166.95C3247.9 166.514 3247.74 166.087 3247.43 165.778C3247.13 165.47 3246.7 165.31 3246.27 165.34C3239.56 165.77 3232.38 165.53 3226.71 165.52C3178.25 165.473 3129.76 165.48 3081.24 165.54C3080.97 165.54 3080.75 165.759 3080.75 166.03L3080.75 442.96C3080.75 443.214 3080.96 443.42 3081.21 443.42L3247.21 443.14C3247.57 443.14 3247.87 442.845 3247.87 442.48L3247.84 387.7C3247.84 387.214 3247.44 386.82 3246.95 386.82L3137.04 386.58C3136.74 386.575 3136.5 386.334 3136.5 386.04L3136.5 332.55C3136.5 332.169 3136.81 331.86 3137.2 331.86L3220.01 331.74C3220.28 331.74 3220.5 331.516 3220.5 331.24L3220.5 276.93C3220.5 276.615 3220.24 276.36 3219.93 276.36L3136.98 276.2C3136.71 276.2 3136.5 275.99 3136.5 275.73L3136.5 221.24C3136.5 220.958 3136.73 220.73 3137.01 220.73Z" fill="#bfbfbf" fill-opacity="0" fill-rule="nonzero" opacity="1" stroke="none"/>
    <path d="M335.31 255.56C327.23 279.46 305.86 293.06 281.29 294.56C254.62 296.18 227.7 295.56 200.98 295.45C200.715 295.45 200.5 295.235 200.5 294.97L200.5 152.46C200.5 152.211 200.701 152.01 200.95 152.01C226.597 151.983 252.277 151.983 277.99 152.07C336.02 152.21 350.73 209.97 335.31 255.56Z" fill="#bfbfbf" fill-opacity="0" fill-rule="nonzero" opacity="1" stroke="none"/>
    <path d="M1455.41 289.49L1455 442.76C1455 443.042 1454.77 443.27 1454.49 443.27L1401.73 443.22C1400.77 443.22 1400 442.445 1400 441.49L1400 160.81C1400 160.463 1400.13 160.41 1400.38 160.65C1419.9 178.64 1439.6 196.51 1458.61 215.01C1494.35 249.79 1531.03 283.53 1566.9 318.17C1567.2 318.457 1567.35 318.393 1567.35 317.98L1567.56 165.97C1567.56 165.683 1567.8 165.45 1568.09 165.45L1622.15 165.61C1622.47 165.61 1622.72 165.864 1622.73 166.18C1622.76 216.727 1622.77 267.247 1622.76 317.74C1622.76 317.927 1622.79 318.103 1622.86 318.27C1622.95 318.49 1623 318.72 1623 318.96L1623 446.46C1623 446.813 1622.87 446.87 1622.61 446.63C1591.44 417.937 1560.69 388.827 1530.34 359.3C1505.95 335.57 1480.71 312.61 1455.91 289.27C1455.82 289.192 1455.7 289.172 1455.59 289.219C1455.48 289.266 1455.41 289.372 1455.41 289.49Z" fill="#111111" fill-rule="nonzero" opacity="1" stroke="none"/>
    <path d="M2387.07 289.4C2387.12 292.11 2386.77 295.14 2386.77 297.62C2386.78 345.96 2387.09 394.39 2386.42 442.73C2386.41 442.975 2386.21 443.17 2385.97 443.17L2331.5 443.5C2331.34 443.503 2331.19 443.441 2331.08 443.328C2330.96 443.215 2330.9 443.061 2330.9 442.9C2331.03 348.82 2331.1 254.75 2331.39 160.69C2331.39 160.357 2331.52 160.3 2331.77 160.52C2341.64 169.13 2351.96 179.99 2360.05 187.5C2406.32 230.47 2451.49 274.54 2497.69 317.58C2497.85 317.732 2498.09 317.771 2498.29 317.679C2498.49 317.588 2498.62 317.384 2498.62 317.16C2497.66 266.78 2498.82 216.25 2497.91 165.82C2497.91 165.683 2497.96 165.551 2498.06 165.453C2498.15 165.355 2498.28 165.3 2498.42 165.3L2553 165.58C2553.26 165.58 2553.46 165.784 2553.47 166.04C2553.59 259.21 2552.83 352.4 2553.33 445.51C2553.34 445.943 2553.18 446.017 2552.85 445.73C2531.72 426.91 2511.28 407.773 2491.55 388.32C2457.54 354.79 2422.16 322.35 2387.44 289.24C2387.38 289.18 2387.28 289.164 2387.2 289.199C2387.12 289.234 2387.07 289.313 2387.07 289.4Z" fill="#111111" fill-rule="nonzero" opacity="1" stroke="none"/>
    <path d="M1365.23 449.04C1339.46 423.46 1318.66 402.79 1286.79 373.6C1254.41 343.96 1227.25 314.73 1199 290.61C1198.75 290.397 1198.62 290.457 1198.62 290.79C1198.09 347.597 1197.99 386.977 1198.32 408.93C1198.52 422.89 1198.54 433.78 1198.38 441.6C1198.38 441.889 1198.16 442.13 1197.87 442.16C1179.6 444.05 1163.02 443.23 1143.23 443.2C1142.96 443.2 1142.75 442.985 1142.75 442.72L1142.75 161.46C1142.75 161.1 1142.89 161.037 1143.16 161.27C1166.99 181.71 1189.37 204.34 1211.89 226.23C1229.53 243.37 1248.04 259.58 1265.59 276.8C1280.1 291.033 1294.71 305.203 1309.4 319.31C1309.46 319.369 1309.55 319.385 1309.63 319.35C1309.7 319.316 1309.76 319.237 1309.76 319.15L1309.74 166C1309.74 165.724 1309.97 165.5 1310.25 165.5L1364.72 165.5C1364.85 165.5 1364.97 165.552 1365.06 165.644C1365.15 165.736 1365.2 165.861 1365.2 165.99C1364.95 182.9 1365.46 201.85 1365.47 216.81C1365.53 283.86 1365.91 350.95 1365.33 417.99C1365.24 428.303 1365.31 438.613 1365.52 448.92C1365.52 448.989 1365.48 449.05 1365.42 449.077C1365.35 449.103 1365.28 449.088 1365.23 449.04Z" fill="#111111" fill-rule="nonzero" opacity="1" stroke="none"/>
    <path d="M3477 442.81L3477 443.06L3409.5 443.41C3409.21 443.417 3408.93 443.269 3408.77 443.02L3337.75 333.91C3337.27 333.17 3337.03 333.243 3337.03 334.13L3337.11 442.38C3337.11 442.75 3336.81 443.05 3336.43 443.05L3282.16 443.39C3281.89 443.39 3281.68 443.175 3281.68 442.91L3281.93 165.42C3281.93 164.636 3282.57 164 3283.35 164C3310.58 163.973 3338.11 163.99 3365.93 164.05C3380.85 164.08 3400.25 167.4 3414.39 173.42C3431.85 180.86 3446 192.537 3456.84 208.45C3465.72 221.48 3469.81 235.51 3471.06 251.69C3472.59 271.4 3470.33 287.8 3461.02 305.78C3450.86 325.42 3435.34 338.887 3414.47 346.18C3414.37 346.215 3414.29 346.295 3414.25 346.396C3414.22 346.498 3414.23 346.61 3414.29 346.7C3434.9 378.933 3455.8 410.97 3477 442.81ZM3400.38 229.36C3392.36 222.6 3377.24 220.07 3367.06 219.63C3357.25 219.21 3347.41 219.01 3337.52 219.03C3337.24 219.03 3337.02 219.254 3337.02 219.53C3336.99 245.85 3336.6 272.18 3337.8 298.48C3337.82 298.761 3338.04 298.98 3338.32 298.98C3355.58 298.93 3369.56 300.18 3383.96 297.82C3414.83 292.76 3423.33 248.74 3400.38 229.36Z" fill="#111111" fill-rule="nonzero" opacity="1" stroke="none"/>
    <path d="M2727.18 220.47C2676.9 216.85 2635.35 261.65 2639.39 311.11C2643.42 360.65 2691.09 395.94 2739.29 387.1C2755.64 384.1 2770.6 375.56 2782.88 364.44C2783.22 364.13 2783.75 364.143 2784.07 364.47L2821.94 402.29C2822.03 402.375 2822.07 402.49 2822.07 402.61C2822.07 402.73 2822.03 402.845 2821.94 402.93C2782.35 442.1 2723.42 454.67 2671.49 434.38C2594.75 404.39 2560.61 312.45 2598.92 238.43C2603.48 229.63 2608.66 222.66 2615.38 214.72C2636.29 190 2666.07 170.9 2698.51 166C2743.71 159.18 2787.74 173.72 2821.4 204.43C2821.51 204.532 2821.57 204.672 2821.57 204.819C2821.58 204.966 2821.52 205.107 2821.42 205.21L2783.18 244.02C2782.98 244.23 2782.64 244.247 2782.42 244.06C2768.59 232.54 2755.13 223.75 2737.67 221.52C2734.18 221.073 2730.68 220.723 2727.18 220.47Z" fill="#111111" fill-rule="nonzero" opacity="1" stroke="none"/>
    <path d="M770.29 359.79L770.15 442.7C770.15 443.031 769.881 443.3 769.55 443.3L715.83 443.15C715.685 443.15 715.546 443.092 715.445 442.988C715.343 442.885 715.287 442.745 715.29 442.6C715.4 432.63 714.99 421.46 715 412.75C715.047 330.363 715.01 248.13 714.89 166.05C714.89 165.586 715.271 165.21 715.74 165.21C750.08 165.517 784 165.603 817.5 165.47C855.02 165.32 892.25 195.35 904.06 230.4C914.41 261.1 909.92 296.91 889.45 321.7C884.677 327.48 878.693 333.177 871.5 338.79C840.1 363.3 807.71 358.55 770.77 359.3C770.507 359.305 770.295 359.522 770.29 359.79ZM770.8 303.62C786.35 303.9 801.85 304.18 817.31 303.11C840.87 301.48 858.65 275.73 852.95 253.09C848.69 236.17 832.87 222.36 815.75 220.93C805.37 220.063 790.513 220.147 771.18 221.18C770.887 221.198 770.644 221.412 770.59 221.7C770.343 223.173 770.22 224.443 770.22 225.51C770.28 251.33 770.307 277.197 770.3 303.11C770.3 303.388 770.522 303.615 770.8 303.62Z" fill="#111111" fill-rule="nonzero" opacity="1" stroke="none"/>
    <path d="M997.25 222.07L997.25 276C997.25 276.276 997.474 276.5 997.75 276.5L1080.07 276.5C1080.38 276.5 1080.64 276.755 1080.64 277.07L1080.8 331.22C1080.8 331.513 1080.57 331.75 1080.28 331.75L998.32 331.84C997.712 331.84 997.22 332.328 997.22 332.93L997.31 386.02C997.31 386.379 997.601 386.67 997.96 386.67C1034.9 386.917 1071.84 386.807 1108.77 386.34C1109.01 386.34 1109.2 386.533 1109.2 386.77L1109.21 441.72C1109.21 441.97 1109.02 442.179 1108.77 442.2C1100.59 442.96 1088.98 443.327 1073.94 443.3C1030.15 443.23 986.28 442.75 942.5 442.94C942.371 442.943 942.246 442.892 942.154 442.8C942.062 442.708 942.01 442.582 942.01 442.45C941.99 350.27 942.32 258.09 941.94 165.92C941.935 165.642 942.157 165.411 942.44 165.4C951.41 165.01 962.73 165.48 969.28 165.48C1015.67 165.5 1062.05 165.51 1108.44 165.51C1108.71 165.51 1108.93 165.729 1108.93 166L1109.3 218.96C1109.3 219.236 1109.09 219.464 1109.81 219.48C1077.39 221.72 1045.5 220.79 1014 220.74C1009.65 220.733 1004.24 220.997 997.75 221.53C997.467 221.551 997.249 221.787 997.25 222.07Z" fill="#111111" fill-rule="nonzero" opacity="1" stroke="none"/>
    <path d="M1763.05 251.77L1810.45 165.94C1810.6 165.674 1810.88 165.509 1811.18 165.51L1872.49 165.49C1872.59 165.491 1872.68 165.542 1872.73 165.625C1872.78 165.707 1872.79 165.811 1872.75 165.9C1862.97 187.23 1850.57 207.02 1839.9 227.93C1830.93 245.48 1820.76 262.36 1811.65 279.86C1807.11 288.59 1802.23 296.59 1796.95 305.69C1792.09 314.09 1790.65 321.01 1790.72 331.43C1790.96 368.537 1791.05 405.64 1790.98 442.74C1790.98 442.977 1790.79 443.17 1790.55 443.17L1735.69 443.51C1735.46 443.51 1735.28 443.326 1735.28 443.1C1735.25 402.187 1735.24 361.257 1735.25 320.31C1735.25 318.937 1734.92 317.65 1734.26 316.45C1706.87 266.457 1679.63 216.363 1652.52 166.17C1652.44 166.019 1652.44 165.836 1652.53 165.689C1652.62 165.541 1652.78 165.451 1652.95 165.45L1715.3 165.62C1715.62 165.621 1715.9 165.804 1716.04 166.09C1722.34 179.583 1729.23 192.713 1736.7 205.48C1745.63 220.72 1753.1 236.62 1762.26 251.78C1762.35 251.921 1762.5 252.006 1762.66 252.004C1762.83 252.002 1762.97 251.913 1763.05 251.77Z" fill="#111111" fill-rule="nonzero" opacity="1" stroke="none"/>
    <path d="M2990.5 275.75L2990.5 166.03C2990.5 165.737 2990.74 165.5 2991.03 165.5L3045.71 165.5C3045.96 165.5 3046.17 165.706 3046.17 165.96L3046.45 441.77C3046.45 442.009 3046.27 442.209 3046.03 442.23C3026.92 443.93 3007.47 443.15 2991.29 443.21C2991.02 443.21 2990.81 442.995 2990.81 442.73L2990.44 332.2C2990.44 331.935 2990.22 331.72 2989.95 331.72L2906.71 331.93C2906.51 331.93 2906.35 332.091 2906.35 332.29L2905.83 442.74C2905.83 443.049 2905.57 443.3 2905.26 443.3L2851.32 443.14C2851.01 443.14 2850.75 442.885 2850.75 442.57L2850.75 165.78C2850.75 165.52 2850.96 165.31 2851.22 165.31L2905.56 165.57C2905.8 165.575 2905.99 165.766 2905.99 166L2906.32 275.78C2906.32 276.04 2906.53 276.25 2906.78 276.25L2990 276.25C2990.28 276.25 2990.5 276.026 2990.5 275.75Z" fill="#111111" fill-rule="nonzero" opacity="1" stroke="none"/>
    <path d="M2069.56 360.15L2069.71 360.39C2069.72 360.38 2069.72 360.412 2069.72 360.479C2069.73 360.547 2069.73 360.644 2069.73 360.75L2069.71 441.55C2069.71 441.83 2069.5 442.065 2069.23 442.1C2050.69 444.21 2032.69 443.33 2014.47 443.19C2014.21 443.19 2014 442.98 2014 442.72L2014 166.04C2014 165.769 2014.22 165.55 2014.49 165.55C2065.59 165.45 2098.67 165.44 2113.74 165.52C2135.41 165.627 2154.72 172.563 2171.68 186.33C2203.09 211.82 2215.5 252.23 2204.23 291.01C2197.32 314.77 2179.05 334.59 2157.76 346.74C2131.18 361.91 2102.57 359.7 2072.07 359.19C2071.36 359.183 2070.54 359.433 2069.61 359.94C2069.58 359.957 2069.55 359.989 2069.54 360.028C2069.53 360.068 2069.54 360.112 2069.56 360.15ZM2151.54 251.19C2150.18 242.23 2136.4 229.15 2128.72 224.15C2127.25 223.197 2125.52 222.587 2123.51 222.32C2106.08 220 2087.86 220.26 2070.44 220.56C2070.05 220.565 2069.74 220.882 2069.74 221.27L2069.61 303.17C2069.61 303.317 2069.67 303.457 2069.78 303.559C2069.88 303.661 2070.02 303.715 2070.17 303.71C2096.38 302.61 2125.17 310.92 2144.17 286.68C2152.3 276.3 2153.47 263.94 2151.54 251.19Z" fill="#111111" fill-rule="nonzero" opacity="1" stroke="none"/>
    <path d="M2296.28 442.22C2277.89 443.99 2259.65 443.3 2241.23 443.19C2240.96 443.19 2240.75 442.975 2240.75 442.71L2240.75 166C2240.75 165.724 2240.97 165.5 2241.25 165.5L2295.97 165.5C2296.25 165.5 2296.48 165.728 2296.48 166.01C2296.51 221.683 2296.52 277.347 2296.51 333C2296.51 333.18 2296.54 333.35 2296.61 333.51C2296.7 333.723 2296.75 333.95 2296.75 334.19L2296.75 441.7C2296.75 441.965 2296.55 441.189 2296.28 442.22Z" fill="#111111" fill-rule="nonzero" opacity="1" stroke="none"/>
    <path d="M3136.5 221.24L3136.5 275.73C3136.5 275.99 3136.71 276.2 3136.98 276.2L3219.93 276.36C3220.24 276.36 3220.5 276.615 3220.5 276.93L3220.5 331.24C3220.5 331.516 3220.28 331.74 3220.01 331.74L3137.2 331.86C3136.81 331.86 3136.5 332.169 3136.5 332.55L3136.5 386.04C3136.5 386.334 3136.74 386.575 3137.04 386.58L3246.95 386.82C3247.44 386.82 3247.84 387.214 3247.84 387.7L3247.87 442.48C3247.87 442.845 3247.57 443.14 3247.21 443.14L3081.21 443.42C3080.96 443.42 3080.75 443.214 3080.75 442.96L3080.75 166.03C3080.75 165.759 3080.97 165.54 3081.24 165.54C3129.76 165.48 3178.25 165.473 3226.71 165.52C3232.38 165.53 3239.56 165.77 3246.27 165.34C3246.7 165.31 3247.13 165.47 3247.43 165.778C3247.74 166.087 3247.9 166.514 3247.87 166.95C3247.46 172.86 3248.03 180.07 3248.02 185.01C3247.97 196.637 3247.83 208.263 3247.6 219.89C3247.59 220.184 3247.36 220.42 3247.07 220.42L3137.01 220.73C3136.73 220.73 3136.5 220.958 3136.5 221.24Z" fill="#111111" fill-rule="nonzero" opacity="1" stroke="none"/>
    <path d="M3400.38 229.36C3423.33 248.74 3414.83 292.76 3383.96 297.82C3369.56 300.18 3355.58 298.93 3338.32 298.98C3338.04 298.98 3337.82 298.761 3337.8 298.48C3336.6 272.18 3336.99 245.85 3337.02 219.53C3337.02 219.254 3337.24 219.03 3337.52 219.03C3347.41 219.01 3357.25 219.21 3367.06 219.63C3377.24 220.07 3392.36 222.6 3400.38 229.36Z" fill="#bfbfbf" fill-opacity="0" fill-rule="nonzero" opacity="0" stroke="none"/>
    <path d="M817.31 303.11C801.85 304.18 786.35 303.9 770.8 303.62C770.522 303.615 770.3 303.388 770.3 303.11C770.307 277.197 770.28 251.33 770.22 225.51C770.22 224.443 770.343 223.173 770.59 221.7C770.644 221.412 770.887 221.198 771.18 221.18C790.513 220.147 805.37 220.063 815.75 220.93C832.87 222.36 848.69 236.17 852.95 253.09C858.65 275.73 840.87 301.48 817.31 303.11Z" fill="#bfbfbf" fill-opacity="0" fill-rule="nonzero" opacity="1" stroke="none"/>
    <path d="M2128.72 224.15C2136.4 229.15 2150.18 242.23 2151.54 251.19C2153.47 263.94 2152.3 276.3 2144.17 286.68C2125.17 310.92 2096.38 302.61 2070.17 303.71C2070.02 303.715 2069.88 303.661 2069.78 303.559C2069.67 303.457 2069.61 303.317 2069.61 303.17L2069.74 221.27C2069.74 220.882 2070.05 220.565 2070.44 220.56C2087.86 220.26 2106.08 220 2123.51 222.32C2125.52 222.587 2127.25 223.197 2128.72 224.15Z" fill="#bfbfbf" fill-opacity="0" fill-rule="nonzero" opacity="1" stroke="none"/>
  </g>
</svg>